<?xml version="1.0" standalone="no"?>
<!DOCTYPE svg PUBLIC "-//W3C//DTD SVG 20010904//EN"
 "http://www.w3.org/TR/2001/REC-SVG-20010904/DTD/svg10.dtd">
<svg version="1.0" xmlns="http://www.w3.org/2000/svg"
 width="510.000000pt" height="512.000000pt" viewBox="0 0 510.000000 512.000000"
 preserveAspectRatio="xMidYMid meet">
<metadata>
Created by potrace 1.16, written by Peter Selinger 2001-2019
</metadata>
<g transform="translate(0.000000,512.000000) scale(0.100000,-0.100000)"
fill="#000000" stroke="none">
<path d="M1230 5105 c-313 -53 -582 -194 -805 -420 -235 -238 -378 -537 -415
-870 -8 -70 -10 -469 -7 -1320 3 -1194 4 -1222 24 -1315 30 -136 66 -238 127
-365 169 -346 485 -623 851 -744 211 -70 120 -66 1545 -66 1204 0 1290 1 1370
18 595 127 1045 587 1156 1182 18 94 19 170 19 1355 0 1185 -1 1261 -19 1355
-115 616 -599 1091 -1211 1190 -125 21 -2517 20 -2635 0z m1877 -800 c145
-242 268 -448 274 -457 9 -17 -22 -18 -594 -18 l-604 0 -274 452 c-151 248
-276 455 -277 460 -2 4 270 7 604 6 l607 -3 264 -440z m720 430 c409 -78 742
-381 858 -781 14 -47 25 -95 25 -105 0 -18 -15 -19 -443 -19 l-442 0 -273 454
c-149 250 -272 457 -272 460 0 3 105 6 234 6 167 0 257 -4 313 -15z m-2348
-460 l267 -440 -675 -3 c-371 -1 -677 0 -680 4 -3 3 4 43 16 89 92 356 360
646 713 771 36 12 71 22 79 21 7 -1 134 -200 280 -442z m3249 -1892 l-3 -1078
-27 -96 c-37 -135 -82 -237 -148 -338 -168 -256 -427 -430 -723 -486 -119 -23
-2435 -23 -2554 0 -298 56 -559 233 -725 490 -67 104 -109 200 -146 334 l-27
96 -3 1078 -3 1077 2181 0 2181 0 -3 -1077z"/>
<path d="M1950 2838 c-19 -13 -45 -39 -57 -57 l-23 -34 0 -744 c0 -835 -4
-790 73 -841 30 -20 52 -26 91 -26 47 0 65 8 206 92 85 50 353 208 595 351
490 289 489 288 489 385 0 97 16 85 -629 505 -590 385 -590 385 -650 389 -51
3 -65 0 -95 -20z"/>
</g>
</svg>
